#!OML:ASF F:\VICON\USERDATA\INSTALL\rory3\rory3.ASF
:FULLY-SPECIFIED
:DEGREES
259
root 8.99698 17.7635 7.392 -181.133 -31.6804 177.091
lowerback 14.0464 1.83068 -3.70667
upperback 1.40389 1.74646 0.461478
thorax -6.52233 0.900261 2.25172
lowerneck -19.7276 -2.61834 -12.3651
upperneck 34.3072 -3.8307 7.40853
head 15.8607 -2.78895 4.46956
rclavicle -5.17586e-014 3.97569e-015
rhumerus -36.7664 -21.6763 -74.0222
rradius 32.7658
rwrist 11.0476
rhand -14.0757 11.3078
rfingers 7.12502
rthumb 12.0561 -18.3249
lclavicle -5.17586e-014 3.97569e-015
lhumerus -32.8313 1.04675 82.1205
lradius 33.7976
lwrist -3.99348
lhand -19.0082 23.5908
lfingers 7.12502
lthumb 7.29725 53.445
rfemur -11.0006 -2.62164 9.53067
rtibia 42.3873
rfoot -18.716 -6.23083
rtoes -4.56008
lfemur -3.85671 -9.45306 -18.6268
ltibia 23.2507
lfoot -13.8981 -1.75171
ltoes -9.75894
260
root 8.94855 17.7583 7.43124 -181.19 -31.2953 177.186
lowerback 13.956 1.82615 -3.69725
upperback 1.35732 1.74563 0.423866
thorax -6.52014 0.901173 2.20773
lowerneck -19.662 -2.5635 -12.2199
upperneck 34.3674 -3.82514 7.37203
head 15.8676 -2.78329 4.42905
rclavicle -4.52235e-015 8.34896e-015
rhumerus -36.774 -21.8069 -74.249
rradius 32.6939
rwrist 10.9148
rhand -13.9739 11.3843
rfingers 7.12502
rthumb 12.1543 -18.2426
lclavicle -4.52235e-015 8.34896e-015
lhumerus -32.8614 1.11235 81.8431
lradius 33.6768
lwrist -4.22404
lhand -19.0884 23.3036
lfingers 7.12502
lthumb 7.21987 53.1604
rfemur -11.3299 -3.37717 10.4972
rtibia 43.1851
rfoot -19.5532 -5.16296
rtoes -6.70935
lfemur -4.03919 -9.4326 -18.8005
ltibia 23.7391
lfoot -14.0722 -1.35329
ltoes -9.42263
261
root 8.9019 17.7501 7.47096 -181.359 -30.7869 177.519
lowerback 13.7588 1.84415 -3.56578
upperback 1.39519 1.80553 0.523865
thorax -6.37331 0.9258 2.23212
lowerneck -19.6932 -2.48493 -12.1504
upperneck 34.4123 -3.72409 7.32938
head 15.8791 -2.74256 4.41821
rclavicle -2.60159e-014 6.16232e-015
rhumerus -36.5376 -21.8637 -74.4352
rradius 32.444
rwrist 10.892
rhand -14.2963 11.7166
rfingers 7.12502
rthumb 11.8434 -17.9285
lclavicle -2.60159e-014 6.16232e-015
lhumerus -32.8358 1.45322 81.6177
lradius 33.5926
lwrist -4.31232
lhand -19.3442 23.1307
lfingers 7.12502
lthumb 6.9729 52.9958
rfemur -11.6269 -3.97883 11.7086
rtibia 43.9274
rfoot -20.3749 -4.03664
rtoes -8.15349
lfemur -4.24797 -9.32121 -18.7298
ltibia 24.2574
lfoot -14.2952 -0.953611
ltoes -9.12111
262
root 8.85536 17.7447 7.50737 -181.474 -30.3471 177.818
lowerback 13.5546 1.83951 -3.42481
upperback 1.38982 1.83595 0.591656
thorax -6.26522 0.93776 2.22238
lowerneck -19.691 -2.42078 -12.0841
upperneck 34.4647 -3.66454 7.31354
head 15.8928 -2.71836 4.41169
rclavicle -2.49972e-014 -1.59028e-015
rhumerus -36.4845 -21.9339 -74.59
rradius 32.3344
rwrist 10.9849
rhand -14.7228 11.9264
rfingers 7.12502
rthumb 11.4321 -17.7419
lclavicle -2.49972e-014 -1.59028e-015
lhumerus -32.9249 1.84373 81.3082
lradius 33.6208
lwrist -4.44155
lhand -19.3814 23.2687
lfingers 7.12502
lthumb 6.93698 53.135
rfemur -11.9173 -4.60926 12.916
rtibia 44.6104
rfoot -21.1147 -3.07194
rtoes -9.86066
lfemur -4.52431 -9.2864 -18.6863
ltibia 24.8522
lfoot -14.4949 -0.568232
ltoes -8.57962
263
root 8.80988 17.7388 7.54092 -181.606 -30.0292 177.916
lowerback 13.52 1.78968 -3.4141
upperback 1.38939 1.7735 0.602619
thorax -6.2423 0.9068 2.24057
lowerneck -19.7014 -2.38043 -12.0492
upperneck 34.4984 -3.62085 7.29109
head 15.9037 -2.70421 4.40412
rclavicle 6.95746e-015 1.19271e-014
rhumerus -36.5011 -21.955 -74.7476
rradius 32.2659
rwrist 11.0372
rhand -14.9697 11.9873
rfingers 7.12502
rthumb 11.194 -17.6941
lclavicle 6.95746e-015 1.19271e-014
lhumerus -33.0001 2.1925 81.0317
lradius 33.6388
lwrist -4.48189
lhand -19.2546 23.6749
lfingers 7.12502
lthumb 7.05938 53.5372
rfemur -12.0269 -5.44754 13.9343
rtibia 45.2567
rfoot -21.825 -2.27833
rtoes -13.09
lfemur -4.70167 -9.2705 -18.8457
ltibia 25.4975
lfoot -14.7219 -0.226676
ltoes -8.13304
264
root 8.76611 17.7282 7.57342 -181.709 -29.694 177.992
lowerback 13.4266 1.7419 -3.47618
upperback 1.40112 1.70643 0.630129
thorax -6.17623 0.87487 2.31949
lowerneck -19.6914 -2.31836 -12.0052
upperneck 34.5051 -3.53794 7.24825
head 15.8903 -2.67374 4.39232
rclavicle -4.21175e-014 -2.98177e-015
rhumerus -36.5524 -21.9544 -74.8823
rradius 32.2838
rwrist 11.1302
rhand -14.6095 11.4226
rfingers 7.12502
rthumb 11.5414 -18.2397
lclavicle -4.21175e-014 -2.98177e-015
lhumerus -33.0326 2.62507 80.7642
lradius 33.5919
lwrist -4.38776
lhand -19.3085 23.7746
lfingers 7.12502
lthumb 7.00732 53.6386
rfemur -12.1465 -6.25186 14.9399
rtibia 45.8705
rfoot -22.6599 -1.31533
rtoes -15.8658
lfemur -4.9226 -9.21502 -19.0069
ltibia 26.1502
lfoot -14.9481 0.141431
ltoes -7.7361
